<?xml version="1.0" standalone="no"?>
<!DOCTYPE svg PUBLIC "-//W3C//DTD SVG 20010904//EN"
 "http://www.w3.org/TR/2001/REC-SVG-20010904/DTD/svg10.dtd">
<svg version="1.0" xmlns="http://www.w3.org/2000/svg"
 width="512.000000pt" height="512.000000pt" viewBox="0 0 512.000000 512.000000"
 preserveAspectRatio="xMidYMid meet">
<metadata>
Created by potrace 1.14, written by Peter Selinger 2001-2017
</metadata>
<g transform="translate(0.000000,512.000000) scale(0.100000,-0.100000)"
fill="#000000" stroke="none">
<path d="M2351 4859 c-294 -62 -526 -216 -630 -416 l-42 -83 -109 -56 c-205
-104 -378 -233 -552 -410 -334 -341 -543 -782 -599 -1268 -17 -146 -6 -473 20
-612 156 -829 742 -1470 1556 -1704 75 -22 295 -64 301 -58 10 10 -197 1679
-221 1786 -3 12 4 58 15 101 13 53 20 110 19 173 l0 93 -70 55 c-107 84 -227
213 -254 273 -21 48 -75 232 -90 303 -3 17 -18 40 -33 51 -84 63 -143 255
-112 363 11 38 45 88 54 79 3 -3 17 -90 31 -195 28 -207 36 -237 60 -228 20 8
20 98 0 219 -19 118 -7 169 91 376 69 148 112 259 129 339 15 68 100 166 170
196 52 22 212 30 301 15 101 -18 190 -45 369 -117 262 -103 344 -117 395 -65
l29 28 45 -121 c24 -66 72 -191 105 -277 82 -211 111 -323 100 -380 -4 -24 -8
-81 -9 -127 0 -74 2 -83 18 -80 12 2 20 20 29 68 6 36 22 128 36 205 l24 140
20 -33 c29 -47 35 -115 19 -193 -18 -82 -46 -138 -96 -192 -29 -32 -41 -56
-50 -102 -7 -33 -30 -114 -51 -179 -49 -151 -93 -208 -281 -364 l-78 -64 0
-94 c0 -52 7 -125 15 -162 15 -66 14 -75 -39 -502 -73 -578 -167 -1382 -163
-1387 9 -8 243 39 348 71 353 107 648 284 910 545 165 165 254 284 363 480
178 322 265 663 266 1038 0 503 -159 962 -470 1353 -84 105 -279 295 -382 373
-93 70 -215 146 -302 189 -62 30 -65 34 -86 92 -51 139 -143 247 -246 286 -31
11 -70 31 -87 44 -78 58 -242 124 -361 145 -98 18 -318 12 -425 -10z"/>
<path d="M2048 3574 c-81 -43 -79 -187 3 -230 72 -37 159 25 159 112 0 103
-81 162 -162 118z"/>
<path d="M2959 3567 c-23 -15 -38 -37 -48 -65 -36 -114 89 -219 171 -145 62
55 63 146 4 200 -43 40 -79 42 -127 10z"/>
</g>
</svg>
